<svg xmlns="http://www.w3.org/2000/svg" xmlns:xlink="http://www.w3.org/1999/xlink" width="579.201" height="397.548" viewBox="0 0 579.201 397.548"><defs><linearGradient id="a" x1="1.167" x2="-0.706" y2="2.246" gradientUnits="objectBoundingBox"><stop offset="0" stop-color="#2a8782"/><stop offset="1" stop-color="#001376"/></linearGradient><linearGradient id="b" x1="-48.04" y1="-7.184" x2="-49.061" y2="-5.965" gradientUnits="objectBoundingBox"><stop offset="0" stop-color="#a1c430"/><stop offset="1" stop-color="#001376"/></linearGradient><linearGradient id="c" x1="1.218" y1="-0.466" x2="0.368" y2="0.957" gradientUnits="objectBoundingBox"><stop offset="0" stop-color="#2a8782"/><stop offset="1" stop-color="#2a8782"/></linearGradient><linearGradient id="d" x1="-2.225" y1="-1.171" x2="1" y2="1.105" gradientUnits="objectBoundingBox"><stop offset="0" stop-color="#a1c430"/><stop offset="1" stop-color="#2a8782"/></linearGradient><linearGradient id="e" x1="1.066" y1="15.599" x2="0.76" y2="7.447" gradientUnits="objectBoundingBox"><stop offset="0" stop-color="#fff"/><stop offset="1" stop-color="#acccef"/></linearGradient><linearGradient id="f" x1="0" y1="0.5" x2="1" y2="0.5" xlink:href="#e"/><linearGradient id="g" x1="0.5" y1="1.792" x2="0.749" y2="-0.865" xlink:href="#e"/><linearGradient id="h" y1="1.348" x2="1.153" y2="-0.118" gradientUnits="objectBoundingBox"><stop offset="0" stop-color="#004a8a"/><stop offset="1" stop-color="#2a8782"/></linearGradient><linearGradient id="i" x1="0.113" y1="0.24" x2="1.068" y2="0.768" gradientUnits="objectBoundingBox"><stop offset="0" stop-color="#fff" stop-opacity="0.706"/><stop offset="1" stop-color="#8ecbff" stop-opacity="0"/></linearGradient></defs><g transform="translate(-43 -39.956)"><g transform="translate(43 39.956)"><g transform="translate(0 0)"><g transform="translate(16.267)"><g transform="translate(250.594 96.929)"><ellipse cx="13.286" cy="21.6" rx="13.286" ry="21.6" transform="translate(0 51.138)" fill="#f3830f"/><path d="M1388.819,756.464c-2.685,1.26-5.8,1.07-8.748.724-7.626-.892-15.329-2.722-21.746-6.938s-11.4-11.143-11.767-18.813c-.246-5.208,1.583-10.253,2.786-15.325a64.709,64.709,0,0,0,1.275-22.576" transform="translate(-1333.207 -633.225)" fill="#0b0042"/><path d="M1405.625,715.13a28.7,28.7,0,0,0,10.982,36.786,3.729,3.729,0,0,1,1.818,1.745c.383,1.145-.482,2.31-1.333,3.167a32.1,32.1,0,0,1-14.135,8.258c-7.964,2.2-16.428,1.236-24.6-.011-6.328-.967-13.211-2.426-17.19-7.438a29.046,29.046,0,0,0,6-31.582" transform="translate(-1320.93 -615.11)" fill="#fce1c5"/><path d="M1404.1,711.445c-3.273,7.672-2.166,9.422-7.475,15.2-1.153,1.254-4.8,5.658-6.506,7.265a44.675,44.675,0,0,1-7.6,4.715c-2.67,1.239-5.138,2.468-7.984,2.793-3.554.4-5.246.589-7.971-1.3,0,0-.375-7.26-1.848-9.588" transform="translate(-1317.96 -618.202)" fill="#ddbb97"/><path d="M1346.922,689.614c2.88,10.224-3.838,20.424-5.989,30.827-2.3,11.131,1.337,23.736,10.388,30.612a32.439,32.439,0,0,1-1.006-22.984c1.765-5.285,4.9-10.081,6.217-15.492,1.416-5.8.655-11.887-.114-17.81" transform="translate(-1338.472 -636.515)" fill="#0b0042"/><path d="M1364.731,666.512c15.805-10.908,43.9-5.4,56.339,8.488,9.621,10.739,13.85,25.179,21.55,37.369,3.542,5.6,7.061,13.363,8.324,19.871,2.477,12.763-.138,25.876-11.979,32.623,7.133-11.723,2.83-25-7.25-30" transform="translate(-1317.944 -660.738)" fill="#0b0042"/><path d="M1362.141,679.272c-5.474,3.965-11.272,11.59-12.373,18.26s3.667,12.94,4.725,19.133c1.541,9.023-.465,16.848,3.413,25.139a46.254,46.254,0,0,0,9.755,13.109c3.463,2.929,6.061,6.112,10.518,6.953,3.5.66,5.833-.36,9.288-1.239,7.847-2,19.635-7.767,26.612-14.676,7.786-7.712,10.443-11.145,12.991-21.805s1.887-21.91-.676-32.564" transform="translate(-1330.635 -645.19)" fill="#f4d9be"/><path d="M1350.1,715.972a53.038,53.038,0,0,1,12.079-17.567,6.511,6.511,0,0,1,2.39-1.653c3.336-1.078,5.86,2.85,8.014,5.616,5.768,7.414,21.583,14.066,30.909,12.944a175.567,175.567,0,0,1,28.083-1.41c-6.076-14.33-22.451-34.124-36.1-41.61-5.508-3.021-11.73-5.336-17.964-4.566-9.393,1.162-16.474,8.861-22.307,16.313-2.926,3.738-5.923,8.142-5.123,12.82" transform="translate(-1330.34 -655.001)" fill="#e2c4a6"/><path d="M1373.45,679.092c-.934,12.307-12.977,19.336-15.286,31.461-.679,3.569.621,15.34,1.062,18.946.6,4.88-3.239,7.061-1.062,11.469-6.193-.973-8.578-11.243-10.958-17.044a46.008,46.008,0,0,1-3.336-14.806,41.161,41.161,0,0,1,3.09-18.357c4.422-10.45,13.411-27.7,37.093-26.906" transform="translate(-1335.494 -658.147)" fill="#0b0042"/><path d="M1351.9,682.085c11.359,5.06,15.649,19.269,25.792,26.463,6.563,4.654,11.769,6.864,19.737,7.968,2.078.289,11.336-.921,13.218-1.848-4.434-4.163-11.006-9.673-11.077-15.755a46.86,46.86,0,0,0,31.06,18.492l-11.507-29.869a59.1,59.1,0,0,0-3.167-7.243c-5.123-9.356-15.307-15.43-25.9-16.673s-21.439,2.021-30.339,7.905c-3.983,2.633-7.8,6.037-9.2,10.6" transform="translate(-1329.867 -658.541)" fill="#0b0042"/><path d="M1413.62,686.7a61.361,61.361,0,0,0-4.824-7.574,36.648,36.648,0,0,0-11.252-9.9,32.572,32.572,0,0,0-22.173-3.371l14.582,32.919c.438,1.326.921,2.709,1.42,4.114l-5.6,1.657s9.377,6.535,9.377,26.117c0,15.336-4.54,21.789-5.956,29.909a20.725,20.725,0,0,0-.309,7.319l0,.031,0,.022c.272,2.455.778,5.059,1.16,8.141a2.532,2.532,0,0,0,3.654,2.648c6.346-1.318,12.7-2.951,18.411-6.022s12.127-7.968,14.591-13.961a39.292,39.292,0,0,0,2.784-12.633C1430.479,725.348,1423.677,704.891,1413.62,686.7Z" transform="translate(-1309.017 -656.999)" fill="#0b0042"/><path d="M442.993,14111.058l22.757-4.491" transform="translate(-376.4 -14046.65)" fill="none" stroke="#fff" stroke-width="2"/><path d="M442.993,14111.869l6.767-1.087" transform="translate(-426.47 -14043.425)" fill="none" stroke="#fff" stroke-width="2"/><g transform="translate(14.585 52.062)"><g transform="translate(0 4.545)"><path d="M1366.555,691.686a32.076,32.076,0,0,0-11.98.987,15.581,15.581,0,0,0-4.41,2,8.529,8.529,0,0,0-2.861,3.895c-.517,1.227,1.489,1.763,2,.55a5.956,5.956,0,0,1,2.409-2.977,15.6,15.6,0,0,1,4.093-1.66,31.843,31.843,0,0,1,10.75-.726c1.328.125,1.318-1.949,0-2.073Z" transform="translate(-1347.219 -691.521)" fill="#0b0042"/></g><ellipse cx="2.136" cy="2.72" rx="2.136" ry="2.72" transform="translate(13.266 16.103)" fill="#0b0042"/><ellipse cx="2.136" cy="2.72" rx="2.136" ry="2.72" transform="translate(43.326 13.424)" fill="#0b0042"/><path d="M1358.224,712.391s3.233,1.75,9.594,1.014,15.852-3.958,15.852-3.958-6.048,10.437-13.078,11.414C1361.074,722.183,1358.224,712.391,1358.224,712.391Z" transform="translate(-1335.859 -670.875)" fill="#d88668"/><g transform="translate(37.011)"><path d="M1368.592,693.391a31.835,31.835,0,0,1,10.572-2.262,15.715,15.715,0,0,1,4.286.452,6.274,6.274,0,0,1,3.365,2.416c.837,1.039,2.3-.436,1.467-1.466a8.145,8.145,0,0,0-3.773-2.8,15.914,15.914,0,0,0-4.853-.682,32.546,32.546,0,0,0-11.616,2.343c-1.229.478-.693,2.484.552,2Z" transform="translate(-1367.345 -689.05)" fill="#0b0042"/></g><path d="M25.591,50.342a13,13,0,0,0,8.516,3.267c5.239.023,15.065-5.508,15.065-5.508s-7.281,7.031-14.023,7.312A10.453,10.453,0,0,1,25.591,50.342Z" transform="translate(-2.795 -8.191)" fill="#fff"/></g><g transform="translate(13.285 7.899)"><g transform="translate(0)"><ellipse cx="16.756" cy="21.6" rx="16.756" ry="21.6" transform="translate(63.421 43.239)" fill="#f3830f"/><path d="M1428.608,710.175a67.047,67.047,0,0,0-3.748-13.865c-3.317-8.88-8.277-17.585-15.807-23.55a34.675,34.675,0,0,0-14.643-6.936,42.193,42.193,0,0,0-19.065.656c-10.244,2.769-18.109,10.141-22.66,19.587-3.384,7.026-5.053,14.636-5.978,22.337-.064.528-.125,1.057-.186,1.585a1.84,1.84,0,0,0,1.829,1.83,1.874,1.874,0,0,0,1.83-1.83c.061-.528.121-1.057.186-1.585.033-.281.068-.561.1-.841.021-.16.042-.318.063-.478a2.553,2.553,0,0,1,.035-.263c.219-1.546.463-3.087.759-4.621a64.175,64.175,0,0,1,3.29-11.495c3.3-8.317,9.345-16.035,18.082-19.5,10.226-4.053,22.633-3.389,31.862,2.766,7.5,5,12.732,13.3,15.993,21.311a77.738,77.738,0,0,1,3.343,10.206c.454,1.791.743,3.608,1.146,5.406.018.081.028.167.039.252a1.844,1.844,0,0,0,2.251,1.278,1.878,1.878,0,0,0,1.278-2.251Z" transform="translate(-1346.512 -665.033)" fill="#f3830f"/><ellipse cx="13.402" cy="17.277" rx="13.402" ry="17.277" transform="translate(68.663 46.3)" fill="#d06e09"/></g><g transform="translate(36.632 74.907)"><g transform="translate(6.122)"><path d="M1405.756,706.048a104.727,104.727,0,0,1-22.416,14.981,107.593,107.593,0,0,1-12.87,5.62c-1.247.449-.708,2.451.552,2a117,117,0,0,0,34.085-19.34c.715-.585,1.43-1.173,2.116-1.795.989-.9-.48-2.361-1.467-1.466Z" transform="translate(-1369.762 -705.769)" fill="#0b0042"/></g><ellipse cx="4.725" cy="2.785" rx="4.725" ry="2.785" transform="translate(0 21.947) rotate(-20.024)" fill="#0b0042"/></g></g><path d="M50.794,77.475s-.124,22.872,0,23.9,6.877.85,8.415,0,4.134-2.058,3.79-3.785c-.012.229-6.6,2.989-8.81-.279S50.794,77.475,50.794,77.475Z" transform="translate(-10.571 -14.1)" fill="#e3c7a9"/></g><g transform="translate(327.393 11.041)"><path d="M31.922,0A31.922,31.922,0,1,1,0,31.922,31.922,31.922,0,0,1,31.922,0Z" transform="translate(0)" fill="#e3f2ff"/><path d="M1384.364,631.076a9.337,9.337,0,1,0-18.652,0,10.178,10.178,0,0,0,.559,3.31h-.012l.048.1a9.926,9.926,0,0,0,.683,1.516l8.374,13.277,8.114-14.04-.01,0A10.147,10.147,0,0,0,1384.364,631.076Zm-9.05,4.207a4.483,4.483,0,1,1,4.483-4.483A4.483,4.483,0,0,1,1375.314,635.283Z" transform="translate(-1343.116 -607.272)" fill="#004a8a"/><ellipse cx="11.71" cy="2.019" rx="11.71" ry="2.019" transform="translate(19.681 44.397)" fill="rgba(157,176,191,0.36)"/></g><g transform="translate(127.213 66.558)"><path d="M1321.751,689.235a28.616,28.616,0,1,0-12.057,8.828l-.012.01,14.239,5.387-2.157-14.237Z" transform="translate(-1270.774 -642.719)" fill="#a1c430"/><g transform="translate(14.274 27.201)"><ellipse cx="2.547" cy="2.547" rx="2.547" ry="2.547" transform="translate(0)" fill="#fff"/><ellipse cx="2.547" cy="2.547" rx="2.547" ry="2.547" transform="translate(11.185)" fill="#fff"/><ellipse cx="2.547" cy="2.547" rx="2.547" ry="2.547" transform="translate(22.371)" fill="#fff"/></g></g><ellipse cx="3.413" cy="3.413" rx="3.413" ry="3.413" transform="translate(183.142 204.649)" fill="#238df0" opacity="0.67"/><g transform="translate(155.193)"><g transform="translate(15.191 218.748)"><g transform="translate(262.429 111.406)"><path d="M1438.381,848.8c7.253-14.172,17.276-27.522,31.232-35.183,13.138-7.212,28.642-8.817,42.327-14.926a69.473,69.473,0,0,0,17.383-11.123c-1.994,12.767-4.079,25.808-10.169,37.2-4.5,8.418-11.131,15.831-13.766,25" transform="translate(-1438.381 -787.569)" fill="url(#a)"/><path d="M1510.977,790.591A110.1,110.1,0,0,1,1492.23,813.4c-6.754,6.239-14.148,11.712-21.116,17.688a122.6,122.6,0,0,0-2.015-18.968c-.177-.951-1.629-.548-1.453.4a119.924,119.924,0,0,1,1.991,19.269.659.659,0,0,0,.188.412c-.655.572-1.331,1.12-1.977,1.7a55.68,55.68,0,0,0-11.068,13.256.753.753,0,0,0,1.3.76c5.377-9.34,14.1-15.858,22.361-22.48q2.937-2.353,5.842-4.777a.665.665,0,0,0,.379.077q7.166-1.4,14.433-2.144c.954-.1.965-1.6,0-1.5-4.3.439-8.584,1.079-12.841,1.855a127.066,127.066,0,0,0,14.2-13.951,115.493,115.493,0,0,0,9.821-13.643C1512.792,790.527,1511.49,789.771,1510.977,790.591Z" transform="translate(-1423.035 -785.33)" fill="#fff" opacity="0.33"/></g><g transform="translate(52.326)"><path d="M1390.618,817.56c-1.484-15.851-5.846-31.967-15.969-44.252-9.529-11.568-23.333-18.806-33.781-29.55a69.473,69.473,0,0,1-12.023-16.772c-2.878,12.6-5.776,25.481-4.344,38.324,1.06,9.487,4.472,18.828,3.52,28.326" transform="translate(-1324.123 -726.985)" fill="url(#b)"/><path d="M1327.888,730.527a110.174,110.174,0,0,0,8.959,28.129c3.963,8.3,8.8,16.121,13.058,24.255a122.522,122.522,0,0,1,8.9-16.872c.517-.818,1.715.1,1.2.91a119.837,119.837,0,0,0-8.992,17.16.669.669,0,0,1-.325.313c.4.774.822,1.534,1.2,2.315a55.645,55.645,0,0,1,5.368,16.414.754.754,0,0,1-1.49.224c-1.532-10.667-7.218-19.953-12.436-29.166-1.237-2.183-2.462-4.382-3.655-6.6a.689.689,0,0,1-.381-.068q-6.137-3.953-12.611-7.341c-.851-.445-.3-1.848.557-1.4,3.836,2.006,7.572,4.185,11.239,6.484a126.978,126.978,0,0,1-8.019-18.221,115.119,115.119,0,0,1-4.066-16.311C1326.225,729.793,1327.717,729.574,1327.888,730.527Z" transform="translate(-1322.33 -724.529)" fill="#fff" opacity="0.33"/></g><g transform="translate(195.951 10.123)"><path d="M1402.229,895.792a119.932,119.932,0,0,1,33.127-68.512c13.221-13.472,29.512-23.663,42.5-37.359a111.657,111.657,0,0,0,28.8-57.431,142.974,142.974,0,0,1,2.915,114.576c-6.916,16.688-17.07,32.151-21.366,49.7" transform="translate(-1402.229 -732.49)" fill="url(#c)"/><g transform="translate(30.783 4.074)" opacity="0.31"><g transform="translate(31.431 70.656)"><path d="M1436.474,773.851c-1.043,11.979.142,24.078.815,36.046.053.963,1.559.971,1.5,0-.673-11.968-1.855-24.067-.813-36.046.085-.965-1.421-.96-1.506,0Z" transform="translate(-1436.062 -773.129)" fill="#fff"/></g><g transform="translate(45.974 75.035)"><path d="M1445.125,788.959l28.07-12.08c.888-.382.122-1.679-.759-1.3l-28.07,12.08c-.888.383-.124,1.679.759,1.3Z" transform="translate(-1443.971 -775.511)" fill="#fff"/></g><g transform="translate(17.39 116.526)"><path d="M1429.58,811.522l28.072-12.08c.888-.383.121-1.679-.759-1.3l-28.072,12.079c-.888.383-.121,1.679.759,1.3Z" transform="translate(-1428.426 -798.074)" fill="#fff"/></g><g transform="translate(1.321 103.264)"><path d="M1419.7,791.577a181.948,181.948,0,0,0,8.462,36.209c.314.91,1.769.518,1.451-.4a180.085,180.085,0,0,1-8.407-35.808c-.122-.947-1.629-.96-1.506,0Z" transform="translate(-1419.688 -790.862)" fill="#fff"/></g><path d="M1420.468,895.155c7.5-21.647,23.311-38.763,36.071-57.356,6.955-10.132,12.5-20.982,17.981-31.958,5.226-10.476,10.439-21.02,14.281-32.1a99.088,99.088,0,0,0,5.743-38.309c-.057-.964-1.563-.971-1.506,0a95.809,95.809,0,0,1-4.687,34.9c-3.582,11.2-8.7,21.822-13.926,32.331-5.478,11.026-10.917,22.057-17.782,32.309-6.221,9.288-13.183,18.048-19.67,27.147-7.236,10.147-13.854,20.807-17.956,32.638-.318.918,1.136,1.311,1.453.4Z" transform="translate(-1418.969 -734.705)" fill="#fff"/></g></g><g transform="translate(0 10.123)"><path d="M1413.583,895.792a119.921,119.921,0,0,0-33.125-68.512c-13.221-13.472-29.512-23.663-42.5-37.359a111.661,111.661,0,0,1-28.806-57.431,142.988,142.988,0,0,0-2.915,114.576c6.916,16.688,17.07,32.151,21.368,49.7" transform="translate(-1295.668 -732.49)" fill="url(#d)"/><g transform="translate(11.412 4.074)" opacity="0.31"><g transform="translate(41.557 70.656)"><path d="M1326.793,773.851c1.043,11.979-.14,24.078-.813,36.046-.053.963-1.559.971-1.506,0,.673-11.968,1.857-24.067.813-36.046-.083-.965,1.423-.96,1.506,0Z" transform="translate(-1324.473 -773.129)" fill="#fff"/></g><g transform="translate(0.127 75.035)"><path d="M1330.409,788.959l-28.072-12.08c-.886-.382-.122-1.679.761-1.3l28.07,12.08c.888.383.121,1.679-.759,1.3Z" transform="translate(-1301.943 -775.511)" fill="#fff"/></g><g transform="translate(28.711 116.526)"><path d="M1345.952,811.522l-28.07-12.08c-.888-.383-.122-1.679.759-1.3l28.072,12.079c.886.383.121,1.679-.761,1.3Z" transform="translate(-1317.487 -798.074)" fill="#fff"/></g><g transform="translate(64.433 103.264)"><path d="M1346.872,791.577a181.791,181.791,0,0,1-8.46,36.209c-.315.91-1.769.518-1.453-.4a179.873,179.873,0,0,0,8.407-35.808c.123-.947,1.629-.96,1.506,0Z" transform="translate(-1336.914 -790.862)" fill="#fff"/></g><path d="M1376.1,895.155c-7.506-21.647-23.311-38.763-36.071-57.356-6.955-10.132-12.5-20.982-17.98-31.958-5.228-10.476-10.439-21.02-14.281-32.1a99.06,99.06,0,0,1-5.743-38.309c.055-.964,1.562-.971,1.5,0a95.9,95.9,0,0,0,4.688,34.9c3.584,11.2,8.705,21.822,13.926,32.331,5.48,11.026,10.919,22.057,17.784,32.309,6.221,9.288,13.181,18.048,19.67,27.147,7.236,10.147,13.854,20.807,17.956,32.638.318.918-1.136,1.311-1.453.4Z" transform="translate(-1301.874 -734.705)" fill="#fff"/></g></g></g><g transform="translate(0 204.742)"><ellipse cx="1.401" cy="1.401" rx="1.401" ry="1.401" transform="translate(0 23.972)" fill="#238df0" opacity="0.45"/><ellipse cx="3.413" cy="3.413" rx="3.413" ry="3.413" transform="translate(27.949)" fill="#004a8a"/></g><g transform="translate(351.506 318.459)"><ellipse cx="1.401" cy="1.401" rx="1.401" ry="1.401" transform="translate(14.074 66.096)" fill="#a1c430" opacity="0.48"/><ellipse cx="3.039" cy="3.039" rx="3.039" ry="3.039" transform="translate(21.551 39.761)" fill="#f3830f"/><ellipse cx="3.039" cy="3.039" rx="3.039" ry="3.039" transform="translate(0)" fill="#004a8a" opacity="0.48"/></g><g transform="translate(226.258)"><ellipse cx="1.401" cy="1.401" rx="1.401" ry="1.401" transform="translate(88.834 170.955)" fill="#a1c430" opacity="0.48"/><ellipse cx="3.039" cy="3.039" rx="3.039" ry="3.039" transform="translate(96.312 144.62)" fill="#f3830f"/><ellipse cx="3.039" cy="3.039" rx="3.039" ry="3.039" transform="translate(0)" fill="#004a8a" opacity="0.48"/></g><g transform="translate(262.516 220.574)"><ellipse cx="1.401" cy="1.401" rx="1.401" ry="1.401" transform="translate(0 38.838)" fill="#a1c430" opacity="0.48"/><ellipse cx="3.039" cy="3.039" rx="3.039" ry="3.039" transform="translate(32.233 6.081)" fill="#2a8782" opacity="0.924"/><ellipse cx="3.413" cy="3.413" rx="3.413" ry="3.413" transform="translate(2.863)" fill="#a1c430"/></g><g transform="translate(25.614 26.647)"><ellipse cx="1.401" cy="1.401" rx="1.401" ry="1.401" transform="translate(0 32.757)" fill="#a1c430" opacity="0.48"/><ellipse cx="3.039" cy="3.039" rx="3.039" ry="3.039" transform="translate(32.233 0)" fill="#2a8782" opacity="0.924"/><ellipse cx="3.413" cy="3.413" rx="3.413" ry="3.413" transform="translate(29.077 66.737)" fill="#a1c430"/></g></g><path d="M1279.586,841.489s-42.96-85.759,17.465-164.983" transform="translate(-1151.196 -550.582)" fill="none" stroke="#bfe5e3" stroke-linecap="round" stroke-miterlimit="10" stroke-width="4.5" stroke-dasharray="1 9" opacity="0.909"/><path d="M1304.976,667.613s51.94-42.983,132.769-35.616" transform="translate(-1117.476 -585.129)" fill="none" stroke="#bfe5e3" stroke-linecap="round" stroke-miterlimit="10" stroke-width="4.5" stroke-dasharray="1 9" opacity="0.909"/><path d="M1450.121,650.968c42.91,17.066,102.132,52.051,122.436,118.744" transform="translate(-1057.94 -590.845)" fill="none" stroke="#bfe5e3" stroke-linecap="round" stroke-miterlimit="10" stroke-width="4.5" stroke-dasharray="1 9" opacity="0.909"/><path d="M1511.269,815.762c-6.236,22.964-20.24,47.335-47.616,69.43" transform="translate(-984.369 -558.169)" fill="none" stroke="#bfe5e3" stroke-linecap="round" stroke-miterlimit="10" stroke-width="4.5" stroke-dasharray="1 9" opacity="0.909"/><g transform="translate(126.648 225.704)"><path d="M1411.782,730.768c-8.439,6.942-16.743,9.759-28.657,9.02-5.3-.327-8.466-1.438-12.111-4.61-4.617,4.253-8.488,9.945-9.557,15.573-3.4,17.916-3.6,36.126-3.79,54.259l-.912,86.688a1.061,1.061,0,0,0,.188.75,1.654,1.654,0,0,0,.973.392,183.073,183.073,0,0,0,41.27,2.337c6.217-.353,12.67-1,18.517.77-.84-7.771,1.574-15.5,3.715-23.1,4.7-16.686,8.179-33.743,7.491-50.858-.23-5.724-.925-11.43-1.151-17.153-.379-9.639.573-19.282.445-28.925a129.833,129.833,0,0,0-3.2-26.877c-1.618-7.153-7.8-12.514-13.223-18.267" transform="translate(-1200.688 -730.768)" fill="#fff"/><path d="M1385.058,733.166c-.414,12.532-1.7,23.789-1.822,38.167-.057,6.623-.392,11.69-.377,18.31.009,4.551-.333,9.1-.675,13.641l-6.476,86.037a2.3,2.3,0,0,1-.482,1.484c-.623.664-1.809.686-2.828.649l-32.382-1.19,2.661-23.2c.9-7.852,1.8-15.743,1.239-23.617-.563-7.85-2.578-15.612-2.751-23.473a100.7,100.7,0,0,1,1.273-15.57l2.944-21.985c1.756-13.1,3.9-27,14.046-37.222a78.3,78.3,0,0,1,9.588-7.786c4.375-3.19,10.237-3.65,16.044-4.249" transform="translate(-1214.73 -728.756)" fill="#004a8a"/><path d="M1433.336,734.074c-5.241,0-10.178,2.985-16.365,5.151-6.668,2.335-10.945,6.677-15.778,11.283-4.255,4.053-13.937,17.267-17.749,21.739-10.845,12.721-21.341,27.463-31.082,41.051-7.5,10.459-13.016,12.57-23.149,20.507-7.038,5.511-15.276,9.22-23.2,13.352a229.324,229.324,0,0,0-31.726,19.987,5.938,5.938,0,0,0-2.155,2.352,6,6,0,0,0-.1,3.045l1.561,11.167a3.355,3.355,0,0,0,.653,1.854,3.3,3.3,0,0,0,2.157.8,130.371,130.371,0,0,0,21.083.2,121.973,121.973,0,0,0,21.036-2.541,144.3,144.3,0,0,0,20-6.736c9.812-3.849,19.694-7.734,28.587-13.389,16.822-10.7,29.144-27.086,40.141-43.714a68.026,68.026,0,0,0,5.579-9.6,72.064,72.064,0,0,0,3.907-12.712q3.021-12.564,5.969-25.146" transform="translate(-1271.883 -727.995)" fill="#004a8a"/><path d="M1393.064,730.768a504.1,504.1,0,0,1-1.013,51.141c-3.733,43.3-4.275,68.81-12.83,111.424-.2.988-.34,2.148.519,2.852a4.449,4.449,0,0,0,2.7.623l36.963.614a4.509,4.509,0,0,0,2.171-.322,3.044,3.044,0,0,0,1.278-1.769c4.939-12.944,5.726-26.689,6.157-40.258q.857-26.984.042-53.984c-.524-17.322-1.515-34.994,4.318-51.637.857-2.444,2.782-4.739,1.032-6.831-.91-1.087-3.376-2.273-4.8-2.865-9.873-4.1-25.888-6.552-36.531-8.988" transform="translate(-1181.969 -730.768)" fill="#004a8a"/><path d="M1374.016,733.568s1.62.252,3.218,4.908,6.438,26.386,3.288,46.928-3.926,48.026-2.1,54.6c1.447,5.211,6.923,20.362,38.528-.364s2.328,21.912,2.328,21.912L1362.9,876.067s-11.59-46.564-10.612-48.208" transform="translate(-1204.483 -728.419)" fill="#2a8782" opacity="0.18"/><path d="M1382.362,842.8s11.285-4.377,21.967-18.163,9.257-23.471,9.257-31.139-1.278-50.034,13.33-48.756,2.558,72.312,2.558,72.312l-18.992,21.912-21.193,9.13" transform="translate(-1179.207 -719.071)" fill="#013a6c"/><path d="M1443.09,734.466c-4.579,6.83-1.359,18.6-3.534,28.959-2.806,13.367-1.7,19.058-1.826,34.444-.07,8.7,1.46,17.589-1.46,28.581-2.264,8.514-9.032,12.556-16.987,16.294s-16.454,6.138-24.723,9.112c-19.707,7.083-38.429,12.238-56.94,22.044-5.706,3.023.566,10.176.495,11.313a4.217,4.217,0,0,0,.789,2.3c3.446,5.914,4.012,4.691,7.252,6.815,1.168.765,4.8-.947,6.026-.274,1.169.642,4.421-.123,5.752-.184,4.831-.219,10.393-.081,15.156-.916,24.58-4.3,60.665,4.354,83.658-5.364,6.28-2.653,12.6-5.585,17.558-10.277,7.021-6.646,10.583-16.13,13.181-25.457,9.794-35.168-9.651-75.918-29.127-106.766-2.488-3.941-9.02-9.613-13.093-9.943" transform="translate(-1198.786 -725.801)" fill="#004a8a"/><path d="M1340.761,848.245s3.663-28.591,1.4-46.654c0,0,5.272-35.963,8.6-32.439s4.189,18.2,2.492,29.775-4.95,40.941-3.359,51.207" transform="translate(-1214.104 -698.773)" fill="#013a6c"/><path d="M1364.854,812.931s-17.5-6.365-24.621-4.859-16.689,7.17-16.483,12.812l41.1.04" transform="translate(-1228.377 -662.034)" fill="#fce1c5"/></g><g transform="translate(0 264.035)"><rect width="300.454" height="7.847" rx="1.625" transform="translate(18.383 120.52)" fill="url(#e)"/><path d="M1402.808,879.98H1223.451a4.748,4.748,0,0,1-4.722-4.253l-12.514-118.868a4.749,4.749,0,0,1,4.724-5.246h181.025a4.749,4.749,0,0,1,4.73,4.318L1407.537,874.8A4.75,4.75,0,0,1,1402.808,879.98Z" transform="translate(-1200.345 -751.613)" fill="url(#f)"/><path d="M1399.631,879.98H1220.274a4.75,4.75,0,0,1-4.724-4.253l-12.513-118.868a4.75,4.75,0,0,1,4.724-5.246h181.025a4.748,4.748,0,0,1,4.729,4.318L1404.361,874.8A4.75,4.75,0,0,1,1399.631,879.98Z" transform="translate(-1203.01 -751.613)" fill="url(#g)"/><ellipse cx="9.938" cy="9.938" rx="9.938" ry="9.938" transform="translate(83.716 55.819)" fill="#fff" opacity="0.48"/></g><g transform="translate(493.28 180.16)"><path d="M34.827,0A34.827,34.827,0,1,0,69.654,34.827,34.827,34.827,0,0,0,34.827,0Z" transform="translate(0)" fill="#e1f2f1"/><path d="M4.758,29.867a10.188,10.188,0,0,0,6.523-4.774,9.074,9.074,0,0,0,.6-1.238c1.505-2.9,1.382-7.711,1.27-9.317a18.358,18.358,0,0,0-2.408-9.353,5.535,5.535,0,0,0-.8-1.281C7.362,1.116,5.48.369,2.583.023,1.24-.138-.061.578,0,1.43L.624,9.792c.062.84,1.425,1.35,2.716,1.007A15.448,15.448,0,0,0,7.165,9.273,16.394,16.394,0,0,1,8.2,14.85l0,.06a24.508,24.508,0,0,1-.2,5.157,15.476,15.476,0,0,0-4-.975c-1.343-.161-2.645.555-2.581,1.408l.621,8.361C2.1,29.7,3.467,30.21,4.758,29.867Z" transform="translate(38.152 18.545) rotate(30)" fill="#2a8782"/></g></g><g transform="translate(0 391.319)"><path d="M1782.292,820.9H1240.587c-7.878,0-15.772-.151-23.648,0-.346.007-.69,0-1.035,0-3.921,0-3.928,6.1,0,6.1h541.706c7.878,0,15.772.149,23.65,0,.344-.007.69,0,1.033,0,3.922,0,3.928-6.1,0-6.1Z" transform="translate(-1212.96 -820.832)" fill="#dce9f8"/></g></g><g transform="translate(259.164 11.021)" opacity="0.343"><path d="M11.306,21V11.306H21V21ZM0,21V11.306H9.69V21ZM11.306,9.69V0H21V9.69ZM0,9.69V0H9.69V9.69Z" transform="translate(0)" fill="url(#h)"/></g><g transform="translate(72.175 158.213)"><g transform="translate(52.272 19.62) rotate(121)"><ellipse cx="19.047" cy="19.047" rx="19.047" ry="19.047" transform="translate(0 0)" fill="none"/><path d="M13.517,25.192V17.2a4.3,4.3,0,0,1,2.458-3.887V11.441L11.059,8.6l.029-.05L0,2.151A4.3,4.3,0,0,1,5.875.577L12.793,4.57a4.3,4.3,0,0,1,2.131,4.135l1.714.99L18.5,8.62l-.033-.056L32.835.27a4.3,4.3,0,0,1-1.574,5.875l-6.917,3.993a4.3,4.3,0,0,1-4.536-.145l-1.989,1.149V29.492A4.3,4.3,0,0,1,13.517,25.192Z" transform="translate(36.25 29.492) rotate(180)" fill="#dbedec"/></g><line y2="25.325" transform="translate(25.83 31.375)" fill="none" stroke="#8bc6c3" stroke-linecap="round" stroke-width="2"/><line x2="9.831" transform="translate(20.915 57.462)" fill="none" stroke="#8bc6c3" stroke-linecap="round" stroke-width="2"/></g><g transform="translate(506.467 55.88) rotate(19)"><g transform="translate(0 6.817)"><path d="M37.236,18.618A18.618,18.618,0,1,1,18.618,0,18.619,18.619,0,0,1,37.236,18.618Z" transform="translate(0 0)" fill="#e7efcf"/></g><g transform="translate(9.635 0)"><path d="M17.968,23.139l-7.285-1.287L14.546,0,0,27.731l7.282,1.288L3.422,50.87Z" transform="translate(0 0)" fill="#a1c430"/></g></g><g transform="translate(280.673 154.206) rotate(-12)" stroke="#fff" stroke-width="1.5" fill="url(#i)"><ellipse cx="10.499" cy="14.537" rx="10.499" ry="14.537" stroke="none"/><ellipse cx="10.499" cy="14.537" rx="9.749" ry="13.787" fill="none"/></g><g transform="translate(308.13 151.783) rotate(-12)" stroke="#fff" stroke-width="1.5" fill="url(#i)"><ellipse cx="11.71" cy="14.94" rx="11.71" ry="14.94" stroke="none"/><ellipse cx="11.71" cy="14.94" rx="10.96" ry="14.19" fill="none"/></g><path d="M406.017,14115.283a3.429,3.429,0,0,1,2.815-3.021c2.751-.722,5.239,1.744,5.239,1.744" transform="translate(-102.423 -13950.795)" fill="none" stroke="#fff" stroke-width="1.5"/></g></g></svg>